<svg xmlns="http://www.w3.org/2000/svg" viewBox="5238 300 260.32 40">
  <g id="Group_19" data-name="Group 19" transform="translate(4988 -16)">
    <g id="Group_17" data-name="Group 17" transform="translate(-6904 -215)">
      <path id="Path_34" data-name="Path 34" d="M43.343,8.384a.814.814,0,0,0-1.139.06l-7.373,8.312a2.356,2.356,0,0,0-.919-.18,2.447,2.447,0,0,0-2.438,2.438,2.409,2.409,0,0,0,1.139,2.058l-1.6,7.193A2.438,2.438,0,0,0,28.9,30.342L19.847,32.22a2.432,2.432,0,0,0-4.515,1.259,2.558,2.558,0,0,0,.24,1.039L7.04,43.049a.82.82,0,0,0,0,1.159.8.8,0,0,0,.579.24.834.834,0,0,0,.579-.24L16.73,35.7a2.354,2.354,0,0,0,1.059.24,2.453,2.453,0,0,0,2.418-2.118l9.051-1.878a2.432,2.432,0,0,0,4.515-1.259,2.41,2.41,0,0,0-1.139-2.058l1.6-7.193a2.412,2.412,0,0,0,1.818-3.6L43.4,9.543A.821.821,0,0,0,43.343,8.384ZM17.769,34.857A1.359,1.359,0,1,1,19.128,33.5,1.36,1.36,0,0,1,17.769,34.857ZM31.3,32.06A1.359,1.359,0,1,1,32.654,30.7,1.36,1.36,0,0,1,31.3,32.06Zm2.617-11.668a1.359,1.359,0,1,1,1.359-1.359A1.36,1.36,0,0,1,33.913,20.392Z" transform="translate(7148.558 524.454)"/>
      <path id="Path_35" data-name="Path 35" d="M119.82,39.52H100V34.645h14.945V4.9H100.28V0h19.54" transform="translate(7073.98 531)"/>
      <path id="Path_36" data-name="Path 36" d="M19.98,39.54H0V0L4.9.04V34.645H19.98m36.164-6.234H69.59v3.017H52.308V3.037h3.836Zm25.774,3.437a8.908,8.908,0,0,1-7.013-2.937,11.033,11.033,0,0,1-2.6-7.612V20.44a10.827,10.827,0,0,1,2.677-7.493,8.263,8.263,0,0,1,6.354-3c2.857,0,5,.859,6.454,2.577A10.274,10.274,0,0,1,89.97,19.4v2.4H76.264l-.06.1a8.39,8.39,0,0,0,1.538,5A4.923,4.923,0,0,0,81.9,28.851a9.424,9.424,0,0,0,3.417-.559,7.707,7.707,0,0,0,2.537-1.538l1.5,2.5a9.245,9.245,0,0,1-2.977,1.858,11.676,11.676,0,0,1-4.456.739Zm-.579-18.881a4.2,4.2,0,0,0-3.3,1.618,7.528,7.528,0,0,0-1.678,4.076l.04.1h9.73v-.5a5.828,5.828,0,0,0-1.219-3.776A4.269,4.269,0,0,0,81.339,12.967ZM97.722,10.33,98,13.467a7.62,7.62,0,0,1,2.637-2.6,7.006,7.006,0,0,1,3.616-.919,6.9,6.9,0,0,1,5.295,2c1.259,1.339,1.878,3.4,1.878,6.174V31.449h-3.836V18.2a5.677,5.677,0,0,0-1.1-3.956,4.424,4.424,0,0,0-3.357-1.179,5.4,5.4,0,0,0-2.937.8,5.779,5.779,0,0,0-2.038,2.178v15.4H94.306V10.33h3.417Zm18.4,10.949a14.009,14.009,0,0,1,2.178-8.212A7.013,7.013,0,0,1,124.4,9.95a7.539,7.539,0,0,1,3.3.679,6.754,6.754,0,0,1,2.458,2V1h3.836v30.43h-3.137l-.44-2.6a6.941,6.941,0,0,1-2.537,2.238,7.706,7.706,0,0,1-3.5.759,7.276,7.276,0,0,1-6.054-2.8,11.6,11.6,0,0,1-2.178-7.373v-.38Zm3.856.42a9.02,9.02,0,0,0,1.3,5.115,4.568,4.568,0,0,0,4.056,1.918,5.185,5.185,0,0,0,2.9-.779,6.006,6.006,0,0,0,1.918-2.178v-9.85a6.012,6.012,0,0,0-1.918-2.078,5.029,5.029,0,0,0-2.837-.779,4.418,4.418,0,0,0-4.1,2.278,11.76,11.76,0,0,0-1.319,5.934v.42Z" transform="translate(7154 531)"/>
      <path id="Path_37" data-name="Path 37" d="M718.919,26.578l.04.12a9.8,9.8,0,0,1-3.037,6.713,10.165,10.165,0,0,1-7.153,2.458,9.566,9.566,0,0,1-7.652-3.417,13.219,13.219,0,0,1-2.917-8.871V18.946a13.188,13.188,0,0,1,2.917-8.871,9.522,9.522,0,0,1,7.652-3.437,10.272,10.272,0,0,1,7.173,2.4,9.762,9.762,0,0,1,3.017,6.753l-.04.12h-2.178a8.838,8.838,0,0,0-2.438-5.415,7.7,7.7,0,0,0-5.554-1.878,7.211,7.211,0,0,0-5.974,2.877,11.684,11.684,0,0,0-2.258,7.393v4.655a11.724,11.724,0,0,0,2.258,7.433,7.211,7.211,0,0,0,5.974,2.877,7.826,7.826,0,0,0,5.554-1.838,8.587,8.587,0,0,0,2.418-5.475h2.2Zm11.409,3.157.739,2.517h.12l6.374-17.9h2.617l-9.171,24.5a12.3,12.3,0,0,1-2.118,3.656,4.794,4.794,0,0,1-3.816,1.5,6.621,6.621,0,0,1-1-.08,5.524,5.524,0,0,1-.859-.18l.28-1.958c.16.02.4.06.759.08a6.131,6.131,0,0,0,.759.04,3.043,3.043,0,0,0,2.438-1.079,9.183,9.183,0,0,0,1.559-2.777l1.119-2.857-8.192-20.859h2.6l5.794,15.4Zm30.549-4.256a12.235,12.235,0,0,1-2.138,7.552,7.027,7.027,0,0,1-5.914,2.817,8.6,8.6,0,0,1-3.9-.839,6.989,6.989,0,0,1-2.717-2.4V43.561h-2.338V14.331h1.978l.3,3.277a7.534,7.534,0,0,1,2.717-2.717,7.763,7.763,0,0,1,3.936-.959,6.913,6.913,0,0,1,5.954,3.037A13.669,13.669,0,0,1,760.9,25.06v.42Zm-2.338-.44a12.15,12.15,0,0,0-1.6-6.553,5.181,5.181,0,0,0-4.675-2.537,6.2,6.2,0,0,0-3.836,1.119,6.905,6.905,0,0,0-2.218,2.917v10.15a6.355,6.355,0,0,0,2.318,2.737,6.721,6.721,0,0,0,3.776,1,5.292,5.292,0,0,0,4.655-2.3,10.594,10.594,0,0,0,1.6-6.114v-.42Zm9.93-7.093a7.664,7.664,0,0,1,2.817-2.937,7.864,7.864,0,0,1,4.1-1.059,6.383,6.383,0,0,1,5.115,2.078c1.2,1.379,1.778,3.516,1.778,6.414V35.45h-2.338V22.363c0-2.3-.459-3.936-1.359-4.935a4.789,4.789,0,0,0-3.736-1.5,6.343,6.343,0,0,0-4.016,1.259,7.375,7.375,0,0,0-2.378,3.357V35.45h-2.338V5h2.338V17.947Zm27.812,17.9a8.542,8.542,0,0,1-6.593-2.917,10.642,10.642,0,0,1-2.617-7.413V24.441a11.016,11.016,0,0,1,2.6-7.512,8.048,8.048,0,0,1,6.314-2.977,7.846,7.846,0,0,1,6.114,2.458,9.308,9.308,0,0,1,2.218,6.553v2H789.409v.559a9.319,9.319,0,0,0,1.9,5.954,6.024,6.024,0,0,0,4.975,2.4,10.391,10.391,0,0,0,3.736-.6,7.407,7.407,0,0,0,2.637-1.738l1,1.6a8.566,8.566,0,0,1-3.017,2A11.91,11.91,0,0,1,796.282,35.849ZM796,15.929a5.6,5.6,0,0,0-4.356,1.978,8.5,8.5,0,0,0-2.058,4.955l.04.1H802v-.579a6.725,6.725,0,0,0-1.619-4.6A5.506,5.506,0,0,0,796,15.929Zm22.677.42-1.738-.12a5.3,5.3,0,0,0-3.616,1.239,6.8,6.8,0,0,0-2.018,3.4V35.43h-2.338v-21.1h2.058l.3,3.516v.24a7.651,7.651,0,0,1,2.458-3.037,6.251,6.251,0,0,1,3.676-1.1,6,6,0,0,1,.859.06c.28.04.519.1.7.14l-.34,2.2Z" transform="translate(6595.3 526.999)"/>
    </g>
  </g>
</svg>
