<svg xmlns="http://www.w3.org/2000/svg" viewBox="5603 300 206.563 40">
  <g id="Group_18" data-name="Group 18" transform="translate(-191 -660)">
    <path id="Path_38" data-name="Path 38" d="M32.809,30.664c-2.593.34-5.168.731-7.752,1.131-1.292.2-2.576.408-3.868.612s-2.576.425-3.859.638l-3.859.655-3.851.68c-1.7.3-3.392.612-5.083.927l.034-1.9.077-4.454c.051-2.967.094-5.933.111-8.9s.017-5.933-.009-8.9Q4.724,8.07,4.673,4.984l1.071.2,3.842.706,3.851.68,3.851.663c2.576.425,5.143.85,7.727,1.25,1.292.2,2.584.383,3.868.578l1.938.289,1.207.17.076,1.9.128,2.737q.128,2.741.272,5.474a.444.444,0,0,0,.425.425.449.449,0,0,0,.476-.425q.153-2.741.272-5.474l.128-2.737.111-2.737a.912.912,0,0,0-.663-.918l-.1-.026L31.262,7.2l-1.887-.519c-1.258-.34-2.516-.689-3.783-1.02-2.525-.672-5.049-1.318-7.574-1.955l-3.774-.952-3.8-.918L6.637.938,2.829.054a2.058,2.058,0,0,0-.459-.06A2.208,2.208,0,0,0,.117,2.171v.094C.057,5.231.006,8.2-.019,11.164s-.026,5.933-.009,8.9.06,5.933.111,8.9l.077,4.454.034,2.227.051,2.227v.111A2.324,2.324,0,0,0,.3,38.4a2.069,2.069,0,0,0,2.491,1.539c2.533-.6,5.075-1.173,7.608-1.794l3.8-.918,3.791-.944c1.267-.315,2.533-.629,3.791-.961s2.525-.646,3.783-.986c2.525-.672,5.041-1.352,7.548-2.074a.814.814,0,0,0,.578-.884A.774.774,0,0,0,32.809,30.664Z" transform="translate(5794.04 960.006)"/>
    <path id="Path_39" data-name="Path 39" d="M111.644,146.79l-19.2-18.114-.034-.034a2.035,2.035,0,0,0-2.882.153l-.026.025-7.922,8.815A1.694,1.694,0,0,0,84,140l7.217-6.843,19.568,14.663a.671.671,0,0,0,.859-1.029Z" transform="translate(5719.753 842.775)"/>
    <path id="Path_40" data-name="Path 40" d="M494.616,144.022a10.187,10.187,0,0,1-.927.527,9.9,9.9,0,0,1-1.411.57,13.089,13.089,0,0,1-1.845.442,12.73,12.73,0,0,1-2.193.179,10.642,10.642,0,0,1-4.267-.816,9.414,9.414,0,0,1-3.188-2.2,9.732,9.732,0,0,1-2-3.239,11.169,11.169,0,0,1-.689-3.91,10.519,10.519,0,0,1,.833-4.2,10.331,10.331,0,0,1,2.261-3.324,10.2,10.2,0,0,1,3.324-2.176,10.607,10.607,0,0,1,4.063-.774,11.191,11.191,0,0,1,1.675.128,15.941,15.941,0,0,1,1.59.315,9.174,9.174,0,0,1,1.318.442,2.326,2.326,0,0,1,.816.527c-.17.255-.3.468-.391.638s-.187.34-.289.51-.213.374-.332.6-.289.527-.51.918a3.761,3.761,0,0,0-.807-.391,7.3,7.3,0,0,0-.986-.264c-.34-.068-.688-.119-1.037-.153s-.663-.06-.944-.06a7.069,7.069,0,0,0-2.865.578,7.484,7.484,0,0,0-2.27,1.539,6.9,6.9,0,0,0-1.5,2.227,6.74,6.74,0,0,0-.544,2.635,6.988,6.988,0,0,0,1.955,4.82,7.343,7.343,0,0,0,2.2,1.564,6.57,6.57,0,0,0,2.831.6,8.116,8.116,0,0,0,1.717-.178,13.3,13.3,0,0,0,1.471-.4,6.64,6.64,0,0,0,1.037-.442,1.236,1.236,0,0,0,.433-.306Z" transform="translate(5356.544 845.534)"/>
    <path id="Path_41" data-name="Path 41" d="M682.8,229.654a6.025,6.025,0,0,1,1.828-4.352,6.475,6.475,0,0,1,2.006-1.318,6.47,6.47,0,0,1,4.913,0A6.052,6.052,0,0,1,693.5,225.3a6.154,6.154,0,0,1,1.76,4.352,6.388,6.388,0,0,1-.459,2.414,5.876,5.876,0,0,1-1.292,1.981,6.067,6.067,0,0,1-1.964,1.326,6.288,6.288,0,0,1-2.491.484,6.615,6.615,0,0,1-2.44-.442,5.923,5.923,0,0,1-1.981-1.258,6.06,6.06,0,0,1-1.343-1.964A6.514,6.514,0,0,1,682.8,229.654Zm2.635.026a3.5,3.5,0,0,0,.281,1.4,3.56,3.56,0,0,0,1.9,1.9,3.647,3.647,0,0,0,2.805,0,3.628,3.628,0,0,0,1.139-.765,3.8,3.8,0,0,0,.774-1.139,3.548,3.548,0,0,0,0-2.805,3.668,3.668,0,0,0-1.913-1.913,3.548,3.548,0,0,0-2.805,0,3.8,3.8,0,0,0-1.139.774,3.627,3.627,0,0,0-.765,1.139A3.562,3.562,0,0,0,685.435,229.68Z" transform="translate(5169.245 755.499)"/>
    <path id="Path_42" data-name="Path 42" d="M865.8,226.726a5.6,5.6,0,0,0-1.479.2,3.862,3.862,0,0,0-1.25.6,3.272,3.272,0,0,0-.875.995,2.851,2.851,0,0,0-.332,1.4v5.457H859.2V223.6h2.329c.034.663.077,1.207.128,1.624s.085.884.127,1.4a4.74,4.74,0,0,1,.969-1.386,7.746,7.746,0,0,1,1.258-1.037,6.018,6.018,0,0,1,1.292-.663,3.325,3.325,0,0,1,1.08-.238Z" transform="translate(5007.839 755.682)"/>
    <path id="Path_43" data-name="Path 43" d="M971.4,226.726a5.6,5.6,0,0,0-1.479.2,3.86,3.86,0,0,0-1.25.6,3.272,3.272,0,0,0-.876.995,2.851,2.851,0,0,0-.332,1.4v5.457H964.8V223.6h2.329c.034.663.076,1.207.127,1.624s.085.884.127,1.4a4.74,4.74,0,0,1,.969-1.386,7.746,7.746,0,0,1,1.258-1.037,6.018,6.018,0,0,1,1.292-.663,3.325,3.325,0,0,1,1.08-.238Z" transform="translate(4911.215 755.682)"/>
    <path id="Path_44" data-name="Path 44" d="M1066.8,155.158a1.542,1.542,0,0,1,.527-1.19,1.668,1.668,0,0,1,1.139-.468,1.614,1.614,0,0,1,1.122.468,1.663,1.663,0,0,1,0,2.4,1.642,1.642,0,0,1-1.122.459,1.714,1.714,0,0,1-1.139-.459A1.528,1.528,0,0,1,1066.8,155.158Zm2.967,16.346h-2.661V159.731h2.661Z" transform="translate(4817.886 819.549)"/>
    <path id="Path_45" data-name="Path 45" d="M1131.7,126.468a6.676,6.676,0,0,1,.459-2.525,5.814,5.814,0,0,1,1.275-1.955,5.894,5.894,0,0,1,1.913-1.275,6.146,6.146,0,0,1,2.4-.459,5.675,5.675,0,0,1,1.556.2,5.287,5.287,0,0,1,1.139.468,3.367,3.367,0,0,1,.765.6,6.312,6.312,0,0,1,.459.544V110.7h2.661v21.642h-2.661v-.774a2.027,2.027,0,0,1,.026-.306,1.821,1.821,0,0,0,.026-.247,7.02,7.02,0,0,1-.612.544,4.817,4.817,0,0,1-.859.544,5.12,5.12,0,0,1-1.122.4,6.03,6.03,0,0,1-1.428.153,6.321,6.321,0,0,1-2.533-.485,5.409,5.409,0,0,1-1.887-1.326,5.844,5.844,0,0,1-1.165-1.964A7.129,7.129,0,0,1,1131.7,126.468Zm2.661-.051a3.864,3.864,0,0,0,.263,1.445,3.4,3.4,0,0,0,.748,1.148,3.573,3.573,0,0,0,1.147.765,3.748,3.748,0,0,0,1.471.281,3.82,3.82,0,0,0,1.479-.281,3.446,3.446,0,0,0,1.165-.774,3.554,3.554,0,0,0,.748-1.165,3.749,3.749,0,0,0,.264-1.411,3.644,3.644,0,0,0-.264-1.4,3.287,3.287,0,0,0-.748-1.122,3.655,3.655,0,0,0-1.165-.748,3.82,3.82,0,0,0-1.479-.281,3.9,3.9,0,0,0-1.471.264,3.4,3.4,0,0,0-1.147.748,3.447,3.447,0,0,0-.748,1.139A3.573,3.573,0,0,0,1134.361,126.417Z" transform="translate(4758.503 858.71)"/>
    <path id="Path_46" data-name="Path 46" d="M1309.7,229.654a6.026,6.026,0,0,1,1.828-4.352,6.476,6.476,0,0,1,2.006-1.318,6.47,6.47,0,0,1,4.913,0,6.052,6.052,0,0,1,1.955,1.318,6.155,6.155,0,0,1,1.76,4.352,6.389,6.389,0,0,1-.459,2.414,5.877,5.877,0,0,1-1.292,1.981,6.066,6.066,0,0,1-1.964,1.326,6.287,6.287,0,0,1-2.491.484,6.615,6.615,0,0,1-2.44-.442,5.923,5.923,0,0,1-1.981-1.258,6.062,6.062,0,0,1-1.343-1.964A6.363,6.363,0,0,1,1309.7,229.654Zm2.627.026a3.5,3.5,0,0,0,.281,1.4,3.559,3.559,0,0,0,1.9,1.9,3.647,3.647,0,0,0,2.805,0,3.628,3.628,0,0,0,1.139-.765,3.8,3.8,0,0,0,.774-1.139,3.547,3.547,0,0,0,0-2.805,3.669,3.669,0,0,0-1.913-1.913,3.548,3.548,0,0,0-2.805,0,3.8,3.8,0,0,0-1.139.774,3.625,3.625,0,0,0-.765,1.139A3.56,3.56,0,0,0,1312.327,229.68Z" transform="translate(4595.633 755.499)"/>
    <path id="Path_47" data-name="Path 47" d="M1492.6,226.726a5.6,5.6,0,0,0-1.479.2,3.863,3.863,0,0,0-1.25.6,3.275,3.275,0,0,0-.875.995,2.851,2.851,0,0,0-.332,1.4v5.457H1486V223.6h2.329c.034.663.077,1.207.128,1.624s.085.884.127,1.4a4.74,4.74,0,0,1,.969-1.386,7.756,7.756,0,0,1,1.258-1.037,6.017,6.017,0,0,1,1.292-.663,3.324,3.324,0,0,1,1.08-.238Z" transform="translate(4434.319 755.682)"/>
    <path id="Path_48" data-name="Path 48" d="M1667.6,147.9V127.7h12.274v3.128h-8.891v5.653h7.735v3.162h-7.735V147.9Z" transform="translate(4268.156 843.155)"/>
    <path id="Path_49" data-name="Path 49" d="M1837.28,238.854h-2.219l-.332-3.273a6.322,6.322,0,0,1-1.76,2.338,4.473,4.473,0,0,1-2.95.927,4.2,4.2,0,0,1-2.9-.952A3.382,3.382,0,0,1,1826,235.36V226.8h2.661v7.319a2.329,2.329,0,0,0,.595,1.454,2.4,2.4,0,0,0,1.734.655,3.748,3.748,0,0,0,1.47-.28,3.463,3.463,0,0,0,1.148-.774,3.676,3.676,0,0,0,.765-1.19,3.938,3.938,0,0,0,.281-1.5v-5.678h2.635v12.045Z" transform="translate(4123.221 752.479)"/>
    <path id="Path_50" data-name="Path 50" d="M1997.2,223.506h2.329c.034.663.076,1.207.128,1.624s.085.884.127,1.4a6.047,6.047,0,0,1,1.8-2.414,4.54,4.54,0,0,1,2.907-.918,4.057,4.057,0,0,1,2.865.986,3.485,3.485,0,0,1,1.122,2.567v8.534h-2.635V228a2.211,2.211,0,0,0-2.329-2.159,3.675,3.675,0,0,0-1.479.289,3.624,3.624,0,0,0-1.165.791,3.5,3.5,0,0,0-.748,1.19,4.108,4.108,0,0,0-.263,1.5v5.678h-2.66V223.506Z" transform="translate(3966.573 755.773)"/>
    <path id="Path_51" data-name="Path 51" d="M2158.9,126.468a6.678,6.678,0,0,1,.459-2.525,5.818,5.818,0,0,1,1.275-1.955,5.893,5.893,0,0,1,1.913-1.275,6.144,6.144,0,0,1,2.4-.459,5.673,5.673,0,0,1,1.555.2,5.3,5.3,0,0,1,1.139.468,3.366,3.366,0,0,1,.765.6,6.334,6.334,0,0,1,.459.544V110.7h2.66v21.642h-2.66v-.774a2.042,2.042,0,0,1,.025-.306,1.868,1.868,0,0,0,.026-.247,6.993,6.993,0,0,1-.612.544,4.8,4.8,0,0,1-.858.544,5.111,5.111,0,0,1-1.122.4,6.028,6.028,0,0,1-1.428.153,6.321,6.321,0,0,1-2.533-.485,5.407,5.407,0,0,1-1.887-1.326,5.84,5.84,0,0,1-1.165-1.964A6.926,6.926,0,0,1,2158.9,126.468Zm2.652-.051a3.864,3.864,0,0,0,.263,1.445,3.4,3.4,0,0,0,.748,1.148,3.575,3.575,0,0,0,1.147.765,3.749,3.749,0,0,0,1.471.281,3.822,3.822,0,0,0,1.479-.281,3.447,3.447,0,0,0,1.164-.774,3.552,3.552,0,0,0,.748-1.165,3.746,3.746,0,0,0,.264-1.411,3.641,3.641,0,0,0-.264-1.4,3.285,3.285,0,0,0-.748-1.122,3.655,3.655,0,0,0-1.164-.748,3.822,3.822,0,0,0-1.479-.281,3.9,3.9,0,0,0-1.471.264,3.4,3.4,0,0,0-1.147.748,3.449,3.449,0,0,0-.748,1.139A3.735,3.735,0,0,0,2161.552,126.417Z" transform="translate(3818.618 858.71)"/>
    <path id="Path_52" data-name="Path 52" d="M2343.615,224.926c-.11.17-.247.357-.4.57s-.306.408-.459.6-.323.417-.527.689a3.219,3.219,0,0,0-.544-.306,4.306,4.306,0,0,0-.612-.2,2.478,2.478,0,0,0-.706-.094,2.15,2.15,0,0,0-.816.178.712.712,0,0,0-.433.731,1.006,1.006,0,0,0,.374.791,3.956,3.956,0,0,0,.918.578c.357.178.757.357,1.19.544a5.645,5.645,0,0,1,1.19.689,3.874,3.874,0,0,1,.918,1.037,2.969,2.969,0,0,1,.374,1.539,3.607,3.607,0,0,1-.289,1.471,3.167,3.167,0,0,1-.833,1.139,4.1,4.1,0,0,1-1.292.748,4.806,4.806,0,0,1-1.692.281,6.26,6.26,0,0,1-2.2-.391,3.86,3.86,0,0,1-1.675-1.105c.128-.145.289-.332.468-.553s.357-.434.527-.638.365-.442.612-.723c0-.017.06.017.178.094a4.852,4.852,0,0,0,.485.289,4.5,4.5,0,0,0,.722.306,2.67,2.67,0,0,0,.859.136,1.631,1.631,0,0,0,1.063-.306.937.937,0,0,0,.374-.748.868.868,0,0,0-.374-.723,4.192,4.192,0,0,0-.918-.51c-.357-.153-.756-.331-1.19-.51a5.654,5.654,0,0,1-1.19-.689,3.735,3.735,0,0,1-.918-1.062,3.307,3.307,0,0,1-.374-1.649,3.529,3.529,0,0,1,.357-1.666,3.2,3.2,0,0,1,.927-1.08,3.678,3.678,0,0,1,1.232-.6,4.991,4.991,0,0,1,1.3-.179,5.15,5.15,0,0,1,1.785.349A4.056,4.056,0,0,1,2343.615,224.926Z" transform="translate(3656.481 755.407)"/>
  </g>
</svg>
