<svg xmlns="http://www.w3.org/2000/svg" viewBox="4394 359 61.998 60">
  <g id="Group_12" data-name="Group 12" transform="translate(4394 359)">
    <g id="Group_10" data-name="Group 10" transform="translate(8.252 6.006)">
      <g id="Group_9" data-name="Group 9">
        <path id="Path_18" data-name="Path 18" d="M94.953,54.2a15.7,15.7,0,1,0,4.6,11.1A15.609,15.609,0,0,0,94.953,54.2ZM74.017,55.461a13.926,13.926,0,0,1,23.576,7.532l-4.88,4.771a3.1,3.1,0,0,0-1.562-.412A3.2,3.2,0,0,0,88.5,68.769l-7.169-2.252v-.061a3.185,3.185,0,0,0-6.369,0,3.155,3.155,0,0,0,.424,1.574l-3.754,3.9A13.907,13.907,0,0,1,74.017,55.461ZM92.544,70.536a1.4,1.4,0,1,1-1.393-1.4A1.4,1.4,0,0,1,92.544,70.536ZM79.538,66.456a1.4,1.4,0,1,1-1.4-1.4A1.406,1.406,0,0,1,79.538,66.456Zm14.155,8.682a13.915,13.915,0,0,1-19.689,0,14.063,14.063,0,0,1-1.417-1.659l4.069-4.214a3.189,3.189,0,0,0,4.129-1.053l7.169,2.252v.061a3.185,3.185,0,1,0,6.369,0,3.137,3.137,0,0,0-.375-1.5l3.814-3.73A13.809,13.809,0,0,1,93.694,75.138Z" transform="translate(-68.15 -49.6)"/>
      </g>
    </g>
    <g id="Group_11" data-name="Group 11">
      <path id="Path_19" data-name="Path 19" d="M46.353,36.073l-1.3,1.3-3.221-3.439a21.693,21.693,0,0,0,2.749-18.793l2.555-2.494a3.2,3.2,0,0,0,4.7-2.809,3.02,3.02,0,0,0-.351-1.441l5.485-5.364V5.8h1.792V0H52.977V1.792h2.7L50.264,7.084a3.186,3.186,0,0,0-4.8,2.749,3.208,3.208,0,0,0,.4,1.55L43.907,13.3A21.659,21.659,0,1,0,6.176,34.087l-1.5,1.562A3.211,3.211,0,0,0,3.2,35.286,3.185,3.185,0,1,0,6.369,38.47,3.155,3.155,0,0,0,5.946,36.9l1.32-1.38a19.888,19.888,0,0,0,1.368,1.5,21.7,21.7,0,0,0,27.487,2.6l3.233,3.451L38.01,44.416,53.655,60,62,51.657Zm2.3-27.645a1.4,1.4,0,1,1-1.393,1.4A1.4,1.4,0,0,1,48.654,8.428ZM3.185,39.863A1.393,1.393,0,1,1,4.577,38.47,1.385,1.385,0,0,1,3.185,39.863Zm6.72-4.1a19.869,19.869,0,1,1,28.093,0A19.894,19.894,0,0,1,9.905,35.758Zm27.669,2.8a22.159,22.159,0,0,0,1.7-1.526c.521-.521,1.017-1.078,1.477-1.635l3.039,3.257-3.173,3.173ZM53.655,57.481,40.541,44.416,46.353,38.6l13.1,13.066Z"/>
    </g>
  </g>
</svg>
