<svg xmlns="http://www.w3.org/2000/svg" viewBox="4226 609 33.486 60">
  <g id="_103506" data-name="103506" transform="translate(4129.313 609)">
    <path id="Path_29" data-name="Path 29" d="M127.031,0h-27.2a3.145,3.145,0,0,0-3.141,3.141V56.859A3.145,3.145,0,0,0,99.827,60h27.2a3.145,3.145,0,0,0,3.141-3.141V3.141A3.145,3.145,0,0,0,127.031,0Zm-27.2,1.508h27.2a1.635,1.635,0,0,1,1.633,1.633V7.126H98.194V3.141A1.635,1.635,0,0,1,99.827,1.508Zm28.837,7.126V50.127H98.194V8.634Zm-1.633,49.857h-27.2a1.635,1.635,0,0,1-1.633-1.633V51.635h30.47v5.224A1.635,1.635,0,0,1,127.031,58.492Z"/>
    <path id="Path_30" data-name="Path 30" d="M194.279,24.77H199.7a.754.754,0,1,0,0-1.508h-5.422a.754.754,0,1,0,0,1.508Z" transform="translate(-83.561 -20.072)"/>
    <path id="Path_31" data-name="Path 31" d="M203.326,383.771a2.458,2.458,0,1,0,2.458,2.458A2.461,2.461,0,0,0,203.326,383.771Zm0,3.408a.95.95,0,1,1,.95-.95A.951.951,0,0,1,203.326,387.179Z" transform="translate(-89.897 -331.15)"/>
    <path id="Path_32" data-name="Path 32" d="M119.689,120.466a4.538,4.538,0,0,0-.974,2.812v16.654a4.538,4.538,0,0,0,.974,2.812l-1.78,1.78a.548.548,0,0,0,.776.776l1.78-1.78a4.537,4.537,0,0,0,2.812.974h16.654a4.537,4.537,0,0,0,2.812-.974l1.78,1.78a.548.548,0,1,0,.776-.776l-1.78-1.78a4.538,4.538,0,0,0,.974-2.812V123.277a4.537,4.537,0,0,0-.974-2.812l1.78-1.78a.548.548,0,0,0-.776-.776l-1.78,1.78a4.537,4.537,0,0,0-2.812-.974H123.277a4.538,4.538,0,0,0-2.812.974l-1.78-1.78a.548.548,0,0,0-.776.776Zm23.294,16.553h-3.765a9.317,9.317,0,0,0,0-10.828h3.765Zm-7.23,1.234a7.816,7.816,0,0,1-8.3,0Zm-9.564-1.234V126.19h10.828v10.828H126.19Zm12.062-9.564a7.816,7.816,0,0,1,0,8.3Zm-10.8-2.5a7.816,7.816,0,0,1,8.3,0Zm-2.5,10.8a7.816,7.816,0,0,1,0-8.3Zm6.648,5.2a9.3,9.3,0,0,0,5.414-1.734v3.765H126.19v-3.765A9.3,9.3,0,0,0,131.6,140.953Zm0-18.7a9.3,9.3,0,0,0-5.414,1.734v-3.765h10.828v3.765A9.3,9.3,0,0,0,131.6,122.255Zm-9.349,9.349a9.3,9.3,0,0,0,1.734,5.414h-3.765V126.19h3.765A9.294,9.294,0,0,0,122.255,131.6Zm-.713,10.837,2.69-2.69a.548.548,0,0,0-.776-.776l-2.69,2.69a3.036,3.036,0,0,1-.543-1.735v-1.679h4.732v4.732h-1.679A3.035,3.035,0,0,1,121.542,142.442Zm18.209-3.465a.548.548,0,0,0-.776.776l2.69,2.69a3.035,3.035,0,0,1-1.735.543h-1.679v-4.732h4.732v1.679a3.036,3.036,0,0,1-.543,1.735Zm1.914-18.209-2.784,2.784a.548.548,0,0,0,.776.776l2.784-2.784a3.036,3.036,0,0,1,.543,1.735v1.679h-4.732v-4.732h1.679A3.035,3.035,0,0,1,141.665,120.767Zm-18.388-.543h1.679v4.732h-4.732v-1.679a3.036,3.036,0,0,1,.543-1.735l2.784,2.784a.548.548,0,1,0,.776-.776l-2.784-2.784A3.037,3.037,0,0,1,123.277,120.224Z" transform="translate(-18.175 -101.604)"/>
    <path id="Path_33" data-name="Path 33" d="M192.257,191.859l-1.539-1.539a4.122,4.122,0,0,0,0-5.015l1.48-1.48a.548.548,0,1,0-.776-.776l-1.48,1.48a4.122,4.122,0,0,0-5.015,0l-1.48-1.48a.548.548,0,0,0-.776.776l1.48,1.48a4.122,4.122,0,0,0,0,5.015l-1.539,1.539a.548.548,0,0,0,.776.776l1.539-1.539a4.122,4.122,0,0,0,5.015,0l1.539,1.539a.548.548,0,0,0,.776-.776Zm-1.923-4.047a2.883,2.883,0,0,1-.5,1.625l-1.625-1.625,1.625-1.625A2.883,2.883,0,0,1,190.335,187.812Zm-2.9-2.9a2.883,2.883,0,0,1,1.625.5l-1.625,1.625-1.625-1.625A2.882,2.882,0,0,1,187.435,184.912Zm-2.9,2.9a2.882,2.882,0,0,1,.5-1.625l1.625,1.625-1.625,1.625A2.883,2.883,0,0,1,184.535,187.812Zm2.9,2.9a2.883,2.883,0,0,1-1.625-.5l1.625-1.625,1.625,1.625A2.883,2.883,0,0,1,187.435,190.712Z" transform="translate(-74.006 -157.812)"/>
  </g>
</svg>
