<svg xmlns="http://www.w3.org/2000/svg" viewBox="3670 359 52.77 60">
  <g id="Group_4" data-name="Group 4" transform="translate(3670 359)">
    <g id="Group_3" data-name="Group 3" transform="translate(0 5.786)">
      <path id="Path_6" data-name="Path 6" d="M154.821,98.1a.853.853,0,0,1-.779-.542c-.04-.106-3.567-10.436,8.6-16.552C158.863,77.229,144.2,61.483,144.2,44.719a.819.819,0,0,1,1.638,0c0,18.137,18.6,35.76,18.785,35.931a.846.846,0,0,1,.251.74.821.821,0,0,1-.476.621c-12.087,5.416-8.943,14.624-8.811,15.007a.824.824,0,0,1-.5,1.057A1.625,1.625,0,0,1,154.821,98.1Z" transform="translate(-125.142 -43.887)"/>
      <path id="Path_7" data-name="Path 7" d="M10.007,98.014a.69.69,0,0,1-.277-.053.831.831,0,0,1-.5-1.044C9.36,96.534,12.451,87.3.416,81.9a.83.83,0,0,1-.476-.608.859.859,0,0,1,.251-.74c.185-.172,18.785-17.794,18.785-35.931a.819.819,0,1,1,1.638,0c0,16.777-14.663,32.51-18.454,36.3,12.166,6.116,8.639,16.447,8.6,16.552A.765.765,0,0,1,10.007,98.014Z" transform="translate(0.068 -43.8)"/>
    </g>
    <path id="Path_8" data-name="Path 8" d="M145.019,75.829a.823.823,0,0,1-.819-.819V44.719a.819.819,0,0,1,1.638,0V75.01A.823.823,0,0,1,145.019,75.829Z" transform="translate(-125.142 -38.101)"/>
    <path id="Path_9" data-name="Path 9" d="M126.012,280.624a3.712,3.712,0,1,1,3.712-3.712A3.715,3.715,0,0,1,126.012,280.624Zm0-5.786a2.074,2.074,0,1,0,2.074,2.074A2.069,2.069,0,0,0,126.012,274.838Z" transform="translate(-106.135 -237.11)"/>
    <path id="Path_10" data-name="Path 10" d="M346.912,7.437a3.719,3.719,0,1,1,3.712-3.725A3.715,3.715,0,0,1,346.912,7.437Zm0-5.8a2.074,2.074,0,1,0,2.074,2.074A2.069,2.069,0,0,0,346.912,1.638Z" transform="translate(-297.854)"/>
    <path id="Path_11" data-name="Path 11" d="M49.144,443.438H14.719a.819.819,0,1,1,0-1.638H49.131a.823.823,0,0,1,.819.819A.812.812,0,0,1,49.144,443.438Z" transform="translate(-12.055 -383.438)"/>
    <path id="Path_12" data-name="Path 12" d="M193.207,49.826a.823.823,0,0,1-.819-.819,25.5,25.5,0,0,0-25.469-25.469.819.819,0,0,1,0-1.638,27.146,27.146,0,0,1,27.107,27.107A.815.815,0,0,1,193.207,49.826Z" transform="translate(-144.149 -19.007)"/>
    <path id="Path_13" data-name="Path 13" d="M128.905,7.437h-5.786a.823.823,0,0,1-.819-.819V.819A.823.823,0,0,1,123.119,0h5.786a.823.823,0,0,1,.819.819V6.605A.818.818,0,0,1,128.905,7.437Zm-4.967-1.651h4.148V1.638h-4.148Z" transform="translate(-106.135)"/>
    <path id="Path_14" data-name="Path 14" d="M349.805,228.424h-5.786a.823.823,0,0,1-.819-.819v-5.786a.823.823,0,0,1,.819-.819h5.786a.823.823,0,0,1,.819.819v5.786A.815.815,0,0,1,349.805,228.424Zm-4.967-1.651h4.148v-4.148h-4.148Z" transform="translate(-297.854 -191.806)"/>
    <path id="Path_15" data-name="Path 15" d="M365.919,68.92a.823.823,0,0,1-.819-.819V44.719a.819.819,0,1,1,1.638,0V68.114A.812.812,0,0,1,365.919,68.92Z" transform="translate(-316.861 -38.101)"/>
  </g>
</svg>
