<svg xmlns="http://www.w3.org/2000/svg" viewBox="3851 609 60 60">
  <g id="_155197" data-name="155197" transform="translate(3851 609)">
    <g id="Group_16" data-name="Group 16">
      <path id="Path_20" data-name="Path 20" d="M2,34H0V59a.945.945,0,0,0,1,1H27V58H2Z"/>
      <path id="Path_21" data-name="Path 21" d="M58,58H33v2H59a.945.945,0,0,0,1-1V34H58Z"/>
      <path id="Path_22" data-name="Path 22" d="M59,0H33V2H58V8H36v2H58V28h2V1A.945.945,0,0,0,59,0Z"/>
      <path id="Path_23" data-name="Path 23" d="M2,10H24V8H2V2H27V0H1A.945.945,0,0,0,0,1V28H2Z"/>
      <rect id="Rectangle_15" data-name="Rectangle 15" width="2" height="2" transform="translate(4 4)"/>
      <rect id="Rectangle_16" data-name="Rectangle 16" width="2" height="2" transform="translate(8 4)"/>
      <rect id="Rectangle_17" data-name="Rectangle 17" width="2" height="2" transform="translate(12 4)"/>
      <rect id="Rectangle_18" data-name="Rectangle 18" width="4" height="2" transform="translate(52 4)"/>
      <path id="Path_24" data-name="Path 24" d="M16,16V46a.945.945,0,0,0,1,1H43a.945.945,0,0,0,1-1V16a.945.945,0,0,0-1-1H17A.945.945,0,0,0,16,16ZM42,35H18V27H42Zm0,10H18V37H42ZM18,17H42v8H18Z"/>
      <rect id="Rectangle_19" data-name="Rectangle 19" width="2" height="4" transform="translate(20 19)"/>
      <rect id="Rectangle_20" data-name="Rectangle 20" width="2" height="4" transform="translate(24 19)"/>
      <rect id="Rectangle_21" data-name="Rectangle 21" width="2" height="4" transform="translate(28 19)"/>
      <rect id="Rectangle_22" data-name="Rectangle 22" width="2" height="4" transform="translate(20 29)"/>
      <rect id="Rectangle_23" data-name="Rectangle 23" width="2" height="4" transform="translate(24 29)"/>
      <rect id="Rectangle_24" data-name="Rectangle 24" width="2" height="4" transform="translate(28 29)"/>
      <rect id="Rectangle_25" data-name="Rectangle 25" width="2" height="2" transform="translate(34 20)"/>
      <rect id="Rectangle_26" data-name="Rectangle 26" width="2" height="2" transform="translate(38 20)"/>
      <rect id="Rectangle_27" data-name="Rectangle 27" width="2" height="2" transform="translate(34 30)"/>
      <rect id="Rectangle_28" data-name="Rectangle 28" width="2" height="2" transform="translate(38 30)"/>
      <rect id="Rectangle_29" data-name="Rectangle 29" width="6" height="2" transform="translate(29 40)"/>
      <rect id="Rectangle_30" data-name="Rectangle 30" width="2" height="2" transform="translate(37 40)"/>
      <rect id="Rectangle_31" data-name="Rectangle 31" width="2" height="2" transform="translate(25 40)"/>
      <rect id="Rectangle_32" data-name="Rectangle 32" width="2" height="2" transform="translate(21 40)"/>
      <path id="Path_25" data-name="Path 25" d="M51.7,28.7l-1.4-1.4-3,3a.967.967,0,0,0,0,1.4l3,3,1.4-1.4L50.4,32H60V30H50.4Z"/>
      <path id="Path_26" data-name="Path 26" d="M8.3,33.3l1.4,1.4,3-3a.967.967,0,0,0,0-1.4l-3-3L8.3,28.7,9.6,30H0v2H9.6Z"/>
      <path id="Path_27" data-name="Path 27" d="M33.7,53.3l-3-3a.967.967,0,0,0-1.4,0l-3,3,1.4,1.4L29,53.4V60h2V53.4l1.3,1.3Z"/>
      <path id="Path_28" data-name="Path 28" d="M26.3,8.7l3,3a.967.967,0,0,0,1.4,0l3-3L32.3,7.3,31,8.6V0H29V8.6L27.7,7.3Z"/>
    </g>
  </g>
</svg>
